<svg xmlns="http://www.w3.org/2000/svg" width="1400" height="900" viewBox="0 0 1400 900">
  <defs>
    <linearGradient id="sidebarGradient" x1="0%" y1="0%" x2="0%" y2="100%">
      <stop offset="0%" style="stop-color:#1e3a5f"/>
      <stop offset="100%" style="stop-color:#2d5a87"/>
    </linearGradient>
    <linearGradient id="purpleIcon" x1="0%" y1="0%" x2="100%" y2="100%">
      <stop offset="0%" style="stop-color:#f3e8ff"/>
      <stop offset="100%" style="stop-color:#ddd6fe"/>
    </linearGradient>
    <linearGradient id="blueIcon" x1="0%" y1="0%" x2="100%" y2="100%">
      <stop offset="0%" style="stop-color:#dbeafe"/>
      <stop offset="100%" style="stop-color:#bfdbfe"/>
    </linearGradient>
    <linearGradient id="greenIcon" x1="0%" y1="0%" x2="100%" y2="100%">
      <stop offset="0%" style="stop-color:#dcfce7"/>
      <stop offset="100%" style="stop-color:#bbf7d0"/>
    </linearGradient>
    <linearGradient id="orangeIcon" x1="0%" y1="0%" x2="100%" y2="100%">
      <stop offset="0%" style="stop-color:#ffedd5"/>
      <stop offset="100%" style="stop-color:#fed7aa"/>
    </linearGradient>
    <linearGradient id="avatarGradient" x1="0%" y1="0%" x2="100%" y2="100%">
      <stop offset="0%" style="stop-color:#667eea"/>
      <stop offset="100%" style="stop-color:#764ba2"/>
    </linearGradient>
    <filter id="shadow" x="-20%" y="-20%" width="140%" height="140%">
      <feDropShadow dx="0" dy="2" stdDeviation="4" flood-opacity="0.08"/>
    </filter>
  </defs>
  
  <rect width="1400" height="900" fill="#f5f7fa"/>
  
  <rect x="0" y="0" width="260" height="900" fill="url(#sidebarGradient)" rx="0"/>
  
  <rect x="20" y="20" width="220" height="60" fill="none"/>
  <text x="20" y="50" fill="white" font-size="16" font-weight="600" font-family="Segoe UI">二道河水库</text>
  <text x="20" y="70" fill="rgba(255,255,255,0.7)" font-size="11" font-family="Segoe UI">工程管理系统</text>
  
  <line x1="20" y1="90" x2="240" y2="90" stroke="rgba(255,255,255,0.1)" stroke-width="1"/>
  
  <rect x="15" y="110" width="230" height="36" rx="8" fill="rgba(255,255,255,0.15)"/>
  <text x="55" y="134" fill="white" font-size="14" font-family="Segoe UI">首页</text>
  
  <rect x="15" y="152" width="230" height="36" rx="8" fill="none"/>
  <text x="55" y="176" fill="rgba(255,255,255,0.9)" font-size="14" font-family="Segoe UI">项目管理</text>
  
  <rect x="15" y="194" width="230" height="36" rx="8" fill="none"/>
  <text x="55" y="218" fill="rgba(255,255,255,0.9)" font-size="14" font-family="Segoe UI">工作简报</text>
  
  <rect x="15" y="236" width="230" height="36" rx="8" fill="none"/>
  <text x="55" y="260" fill="rgba(255,255,255,0.9)" font-size="14" font-family="Segoe UI">工作进度</text>
  
  <rect x="15" y="278" width="230" height="36" rx="8" fill="none"/>
  <text x="55" y="302" fill="rgba(255,255,255,0.9)" font-size="14" font-family="Segoe UI">移民资金</text>
  
  <rect x="15" y="320" width="230" height="36" rx="8" fill="none"/>
  <text x="55" y="344" fill="rgba(255,255,255,0.9)" font-size="14" font-family="Segoe UI">大事记</text>
  
  <rect x="15" y="362" width="230" height="36" rx="8" fill="none"/>
  <text x="55" y="386" fill="rgba(255,255,255,0.9)" font-size="14" font-family="Segoe UI">通讯录</text>
  
  <rect x="15" y="404" width="230" height="36" rx="8" fill="none"/>
  <text x="55" y="428" fill="rgba(255,255,255,0.9)" font-size="14" font-family="Segoe UI">地图管理</text>
  
  <line x1="20" y1="460" x2="240" y2="460" stroke="rgba(255,255,255,0.1)" stroke-width="1"/>
  
  <rect x="15" y="475" width="230" height="60" rx="10" fill="rgba(255,255,255,0.1)"/>
  <circle cx="43" cy="505" r="18" fill="url(#avatarGradient)"/>
  <text x="43" y="510" fill="white" font-size="14" font-weight="600" font-family="Segoe UI" text-anchor="middle">A</text>
  <text x="75" y="500" fill="white" font-size="13" font-weight="500" font-family="Segoe UI">admin</text>
  <text x="75" y="518" fill="rgba(255,255,255,0.7)" font-size="11" font-family="Segoe UI">系统管理员</text>
  
  <rect x="280" y="20" width="1100" height="60" fill="white" rx="12" filter="url(#shadow)"/>
  <rect x="300" y="32" width="380" height="36" fill="#f9fafb" rx="10" stroke="#e5e7eb" stroke-width="1"/>
  <text x="320" y="54" fill="#9ca3af" font-size="14" font-family="Segoe UI">搜索项目、文档、人员...</text>
  
  <text x="280" y="110" fill="#1f2937" font-size="24" font-weight="600" font-family="Segoe UI">工程概览</text>
  <text x="280" y="132" fill="#6b7280" font-size="14" font-family="Segoe UI">欢迎回来，admin！这是今天的工程进展汇总</text>
  
  <rect x="280" y="150" width="250" height="140" fill="white" rx="16" filter="url(#shadow)"/>
  <rect x="300" y="170" width="44" height="44" rx="14" fill="url(#purpleIcon)"/>
  <text x="322" y="196" fill="#8b5cf6" font-size="20" font-family="Segoe UI" text-anchor="middle">🏠</text>
  <text x="300" y="230" fill="#1f2937" font-size="28" font-weight="700" font-family="Segoe UI">12</text>
  <text x="300" y="250" fill="#6b7280" font-size="13" font-family="Segoe UI">在建项目</text>
  
  <rect x="545" y="150" width="250" height="140" fill="white" rx="16" filter="url(#shadow)"/>
  <rect x="565" y="170" width="44" height="44" rx="14" fill="url(#blueIcon)"/>
  <text x="587" y="196" fill="#3b82f6" font-size="20" font-family="Segoe UI" text-anchor="middle">👥</text>
  <text x="565" y="230" fill="#1f2937" font-size="28" font-weight="700" font-family="Segoe UI">1,258</text>
  <text x="565" y="250" fill="#6b7280" font-size="13" font-family="Segoe UI">移民安置</text>
  
  <rect x="810" y="150" width="250" height="140" fill="white" rx="16" filter="url(#shadow)"/>
  <rect x="830" y="170" width="44" height="44" rx="14" fill="url(#greenIcon)"/>
  <text x="852" y="196" fill="#22c55e" font-size="20" font-family="Segoe UI" text-anchor="middle">✓</text>
  <text x="830" y="230" fill="#1f2937" font-size="28" font-weight="700" font-family="Segoe UI">78%</text>
  <text x="830" y="250" fill="#6b7280" font-size="13" font-family="Segoe UI">工程进度</text>
  
  <rect x="1075" y="150" width="250" height="140" fill="white" rx="16" filter="url(#shadow)"/>
  <rect x="1095" y="170" width="44" height="44" rx="14" fill="url(#orangeIcon)"/>
  <text x="1117" y="196" fill="#f97316" font-size="20" font-family="Segoe UI" text-anchor="middle">$</text>
  <text x="1095" y="230" fill="#1f2937" font-size="28" font-weight="700" font-family="Segoe UI">¥2.3亿</text>
  <text x="1095" y="250" fill="#6b7280" font-size="13" font-family="Segoe UI">资金投入</text>
  
  <rect x="280" y="310" width="520" height="280" fill="white" rx="16" filter="url(#shadow)"/>
  <rect x="280" y="310" width="520" height="52" fill="white" rx="16" stroke="#f3f4f6" stroke-width="1"/>
  <text x="300" y="342" fill="#1f2937" font-size="16" font-weight="600" font-family="Segoe UI">项目进展</text>
  <text x="720" y="342" fill="#3b82f6" font-size="13" font-family="Segoe UI">查看全部</text>
  
  <rect x="300" y="380" width="480" height="44" rx="8" fill="#f9fafb"/>
  <rect x="310" y="385" width="34" height="34" rx="10" fill="url(#blueIcon)"/>
  <text x="327" y="406" fill="#3b82f6" font-size="16" font-family="Segoe UI" text-anchor="middle">🏠</text>
  <text x="355" y="402" fill="#1f2937" font-size="14" font-weight="500" font-family="Segoe UI">安置房主体结构封顶</text>
  <text x="355" y="420" fill="#6b7280" font-size="12" font-family="Segoe UI">移民安置工程</text>
  <rect x="680" y="390" width="80" height="24" rx="12" fill="#dcfce7"/>
  <text x="720" y="406" fill="#16a34a" font-size="12" font-weight="500" font-family="Segoe UI" text-anchor="middle">已完成</text>
  
  <rect x="280" y="610" width="520" height="280" fill="white" rx="16" filter="url(#shadow)"/>
  <rect x="280" y="610" width="520" height="52" fill="white" rx="16" stroke="#f3f4f6" stroke-width="1"/>
  <text x="300" y="642" fill="#1f2937" font-size="16" font-weight="600" font-family="Segoe UI">工程动态</text>
  <text x="720" y="642" fill="#3b82f6" font-size="13" font-family="Segoe UI">更多</text>
  
  <rect x="815" y="310" width="520" height="280" fill="white" rx="16" filter="url(#shadow)"/>
  <rect x="815" y="310" width="520" height="52" fill="white" rx="16" stroke="#f3f4f6" stroke-width="1"/>
  <text x="835" y="342" fill="#1f2937" font-size="16" font-weight="600" font-family="Segoe UI">进度统计</text>
  <text x="1255" y="342" fill="#3b82f6" font-size="13" font-family="Segoe UI">详细报告</text>
  
  <rect x="835" y="380" width="480" height="6" rx="3" fill="#e5e7eb"/>
  <rect x="835" y="380" width="408" height="6" rx="3" fill="#3b82f6"/>
  <text x="835" y="370" fill="#4b5563" font-size="13" font-family="Segoe UI">主体工程</text>
  <text x="1270" y="370" fill="#1f2937" font-size="13" font-weight="500" font-family="Segoe UI" text-anchor="end">85%</text>
  
  <rect x="835" y="410" width="480" height="6" rx="3" fill="#e5e7eb"/>
  <rect x="835" y="410" width="345" height="6" rx="3" fill="#22c55e"/>
  <text x="835" y="400" fill="#4b5563" font-size="13" font-family="Segoe UI">移民安置</text>
  <text x="1270" y="400" fill="#1f2937" font-size="13" font-weight="500" font-family="Segoe UI" text-anchor="end">72%</text>
  
  <rect x="835" y="440" width="480" height="6" rx="3" fill="#e5e7eb"/>
  <rect x="835" y="440" width="216" height="6" rx="3" fill="#8b5cf6"/>
  <text x="835" y="430" fill="#4b5563" font-size="13" font-family="Segoe UI">配套设施</text>
  <text x="1270" y="430" fill="#1f2937" font-size="13" font-weight="500" font-family="Segoe UI" text-anchor="end">45%</text>
  
  <rect x="815" y="610" width="520" height="280" fill="white" rx="16" filter="url(#shadow)"/>
  <rect x="815" y="610" width="520" height="52" fill="white" rx="16" stroke="#f3f4f6" stroke-width="1"/>
  <text x="835" y="642" fill="#1f2937" font-size="16" font-weight="600" font-family="Segoe UI">快捷操作</text>
  
  <rect x="835" y="680" width="110" height="90" rx="12" fill="#f9fafb"/>
  <rect x="865" y="695" width="50" height="50" rx="14" fill="url(#blueIcon)"/>
  <text x="890" y="720" fill="#3b82f6" font-size="22" font-family="Segoe UI" text-anchor="middle">📄</text>
  <text x="890" y="750" fill="#4b5563" font-size="13" font-family="Segoe UI" text-anchor="middle">新建简报</text>
  
  <rect x="960" y="680" width="110" height="90" rx="12" fill="#f9fafb"/>
  <rect x="990" y="695" width="50" height="50" rx="14" fill="url(#greenIcon)"/>
  <text x="1015" y="720" fill="#22c55e" font-size="22" font-family="Segoe UI" text-anchor="middle">➕</text>
  <text x="1015" y="750" fill="#4b5563" font-size="13" font-family="Segoe UI" text-anchor="middle">添加项目</text>
  
  <rect x="1085" y="680" width="110" height="90" rx="12" fill="#f9fafb"/>
  <rect x="1115" y="695" width="50" height="50" rx="14" fill="url(#orangeIcon)"/>
  <text x="1140" y="720" fill="#f97316" font-size="22" font-family="Segoe UI" text-anchor="middle">📤</text>
  <text x="1140" y="750" fill="#4b5563" font-size="13" font-family="Segoe UI" text-anchor="middle">上传文档</text>
  
  <rect x="1210" y="680" width="110" height="90" rx="12" fill="#f9fafb"/>
  <rect x="1240" y="695" width="50" height="50" rx="14" fill="url(#purpleIcon)"/>
  <text x="1265" y="720" fill="#8b5cf6" font-size="22" font-family="Segoe UI" text-anchor="middle">📊</text>
  <text x="1265" y="750" fill="#4b5563" font-size="13" font-family="Segoe UI" text-anchor="middle">生成报表</text>
</svg>
